<mxfile host="app.diagrams.net" modified="2022-05-13T04:47:20.743Z" agent="5.0 (Macintosh; Intel Mac OS X 10_15_7) AppleWebKit/537.36 (KHTML, like Gecko) Chrome/101.0.4951.54 Safari/537.36 Edg/101.0.1210.39" etag="RZ-OqgGc3Al8G_TXYd_F" version="18.0.3" type="github" pages="2">
  <diagram id="xhHwLkuQAUZRNOg5QODs" name="晋升鉴定">
    <mxGraphModel dx="1426" dy="826" grid="1" gridSize="10" guides="1" tooltips="1" connect="1" arrows="1" fold="1" page="0" pageScale="1" pageWidth="827" pageHeight="1169" math="0" shadow="0">
      <root>
        <mxCell id="0" />
        <mxCell id="1" parent="0" />
        <mxCell id="XvKaKWLarS6UlJgX8GEv-1" value="制定SMT学习计划" style="shape=step;perimeter=stepPerimeter;fixedSize=1;points=[];fillColor=#E6E6E6;" parent="1" vertex="1">
          <mxGeometry x="250" y="10" width="140" height="57" as="geometry" />
        </mxCell>
        <mxCell id="XvKaKWLarS6UlJgX8GEv-2" value="系统鉴定" style="shape=step;perimeter=stepPerimeter;fixedSize=1;points=[];fillColor=#E6E6E6;" parent="1" vertex="1">
          <mxGeometry x="530" y="10" width="130" height="57" as="geometry" />
        </mxCell>
        <mxCell id="XvKaKWLarS6UlJgX8GEv-3" value="晋升鉴定" style="shape=step;perimeter=stepPerimeter;fixedSize=1;points=[];fillColor=#f0a30a;strokeColor=#BD7000;fontColor=#000000;" parent="1" vertex="1">
          <mxGeometry x="660" y="10" width="130" height="57" as="geometry" />
        </mxCell>
        <mxCell id="XvKaKWLarS6UlJgX8GEv-4" value="创建鉴定表" style="html=1;shadow=0;dashed=0;align=center;verticalAlign=middle;shape=mxgraph.arrows2.arrow;dy=0;dx=21;notch=0;fillColor=#E6E6E6;" parent="1" vertex="1">
          <mxGeometry x="20" y="10" width="107.5" height="57" as="geometry" />
        </mxCell>
        <mxCell id="XvKaKWLarS6UlJgX8GEv-5" value="创建系统课程" style="shape=step;perimeter=stepPerimeter;fixedSize=1;points=[];fillColor=#E6E6E6;" parent="1" vertex="1">
          <mxGeometry x="127.5" y="10" width="120" height="57" as="geometry" />
        </mxCell>
        <mxCell id="XvKaKWLarS6UlJgX8GEv-6" value="" style="rounded=0;whiteSpace=wrap;html=1;sketch=0;fontFamily=Helvetica;fontSize=12;fontColor=default;startSize=20;strokeColor=none;fillColor=#E6E6E6;" parent="1" vertex="1">
          <mxGeometry x="1180" y="85" width="290" height="655" as="geometry" />
        </mxCell>
        <mxCell id="XvKaKWLarS6UlJgX8GEv-7" value="&lt;h3&gt;流程步骤说明&lt;/h3&gt;&lt;div&gt;&lt;ol&gt;&lt;li class=&quot;li1&quot; style=&quot;margin: 0px; font-stretch: normal; line-height: normal; font-family: &amp;quot;pingfang sc&amp;quot;;&quot;&gt;&lt;font style=&quot;font-size: 12px;&quot;&gt;&lt;span class=&quot;s1&quot; style=&quot;line-height: normal; font-family: &amp;quot;helvetica neue&amp;quot;; font-stretch: normal; font-stretch: normal;&quot;&gt;&lt;/span&gt;选择学员：已经完成系统课程的学员&lt;/font&gt;&lt;/li&gt;&lt;li class=&quot;li1&quot; style=&quot;margin: 0px; font-stretch: normal; line-height: normal; font-family: &amp;quot;pingfang sc&amp;quot;;&quot;&gt;&lt;font style=&quot;font-size: 12px;&quot;&gt;&lt;span class=&quot;s1&quot; style=&quot;font-stretch: normal ; line-height: normal ; font-family: &amp;quot;helvetica neue&amp;quot;&quot;&gt;&lt;/span&gt;发起鉴定申请：选择&lt;span class=&quot;s1&quot; style=&quot;font-stretch: normal ; line-height: normal ; font-family: &amp;quot;helvetica neue&amp;quot;&quot;&gt;OC&lt;/span&gt;对象、紧急程度、流程有效期&lt;/font&gt;&lt;/li&gt;&lt;li class=&quot;li1&quot; style=&quot;margin: 0px; font-stretch: normal; line-height: normal; font-family: &amp;quot;helvetica neue&amp;quot;;&quot;&gt;&lt;font style=&quot;font-size: 12px;&quot;&gt;OC&lt;span class=&quot;s1&quot; style=&quot;font-stretch: normal ; line-height: normal ; font-family: &amp;quot;pingfang sc&amp;quot;&quot;&gt;处理申请：&lt;/span&gt;&lt;/font&gt;&lt;/li&gt;&lt;ol&gt;&lt;li class=&quot;li1&quot; style=&quot;margin: 0px; font-stretch: normal; line-height: normal; font-family: &amp;quot;helvetica neue&amp;quot;;&quot;&gt;&lt;span class=&quot;s1&quot; style=&quot;font-stretch: normal ; line-height: normal ; font-family: &amp;quot;pingfang sc&amp;quot;&quot;&gt;&lt;font style=&quot;font-size: 12px;&quot;&gt;7天未处理：转上级OM，后期OM审核结果直接通知RGM，鉴定也是由OM进行&lt;/font&gt;&lt;/span&gt;&lt;/li&gt;&lt;li class=&quot;li1&quot; style=&quot;margin: 0px; font-stretch: normal; line-height: normal;&quot;&gt;&lt;font style=&quot;font-size: 12px;&quot; face=&quot;pingfang sc&quot;&gt;OC岗位变更：RGM可撤销申请&lt;/font&gt;&lt;/li&gt;&lt;/ol&gt;&lt;li&gt;&lt;span style=&quot;background-color: initial;&quot;&gt;是否审核通过：&lt;/span&gt;&lt;br&gt;&lt;/li&gt;&lt;ol&gt;&lt;li class=&quot;li1&quot; style=&quot;margin: 0px; font-stretch: normal; line-height: normal; font-family: &amp;quot;pingfang sc&amp;quot;;&quot;&gt;&lt;font style=&quot;font-size: 12px;&quot;&gt;已通过：线下告知鉴定时间和邀请&lt;span class=&quot;s1&quot; style=&quot;font-stretch: normal ; line-height: normal ; font-family: &amp;quot;helvetica neue&amp;quot;&quot;&gt;TC/TM&lt;/span&gt;鉴定（未来鉴定时间和邀请TC/TM可线上化）&lt;/font&gt;&lt;/li&gt;&lt;ol&gt;&lt;li class=&quot;li1&quot; style=&quot;margin: 0px; font-stretch: normal; line-height: normal; font-family: &amp;quot;pingfang sc&amp;quot;;&quot;&gt;&lt;font style=&quot;font-size: 12px;&quot;&gt;&lt;span style=&quot;font-family: dengxian;&quot;&gt;基础值班管理鉴定 I：直营市场由 RGM 鉴定，如学员完成了要求的系统课程后，RGM可点击晋升鉴定，&lt;/span&gt;直接做鉴定。 DL 市场由 OC 鉴定。&lt;/font&gt;&lt;/li&gt;&lt;li class=&quot;li1&quot; style=&quot;margin: 0px; font-stretch: normal; line-height: normal; font-family: &amp;quot;pingfang sc&amp;quot;;&quot;&gt;&lt;font style=&quot;font-size: 12px;&quot;&gt;&lt;span style=&quot;font-family: dengxian;&quot;&gt;基础系统管理鉴定Ⅱ：由 RGM 提交申请 OC 审批，OC 鉴定&lt;/span&gt;&lt;br&gt;&lt;/font&gt;&lt;/li&gt;&lt;li class=&quot;li1&quot; style=&quot;margin: 0px; font-stretch: normal; line-height: normal; font-family: &amp;quot;pingfang sc&amp;quot;;&quot;&gt;&lt;span style=&quot;font-family: dengxian;&quot;&gt;&lt;font style=&quot;font-size: 12px;&quot;&gt;基础业务管理鉴定Ⅲ：由 RGM 提交申请 OC 审批，OC 邀请 TC/TM 进行鉴定&lt;br&gt;&lt;/font&gt;&lt;/span&gt;&lt;/li&gt;&lt;li class=&quot;li1&quot; style=&quot;margin: 0px; font-stretch: normal; line-height: normal; font-family: &amp;quot;pingfang sc&amp;quot;;&quot;&gt;&lt;span style=&quot;font-family: dengxian;&quot;&gt;&lt;font style=&quot;font-size: 12px;&quot;&gt;系统实操鉴定Ⅳ：由 RGM 提交申请 OC 审批，OC 邀请 TC/TM 进行鉴定&lt;/font&gt;&lt;/span&gt;&lt;/li&gt;&lt;/ol&gt;&lt;li class=&quot;li1&quot; style=&quot;margin: 0px; font-stretch: normal; line-height: normal; font-family: &amp;quot;pingfang sc&amp;quot;;&quot;&gt;&lt;font style=&quot;font-size: 12px;&quot;&gt;不通过：驳回申请并附加理由&lt;/font&gt;&lt;/li&gt;&lt;/ol&gt;&lt;li&gt;&lt;font style=&quot;font-size: 12px;&quot; face=&quot;PingFang SC&quot;&gt;线下通知学员鉴定时间（后期告知也可线上化）&lt;/font&gt;&lt;/li&gt;&lt;/ol&gt;&lt;/div&gt;&lt;blockquote style=&quot;margin: 0 0 0 40px ; border: none ; padding: 0px&quot;&gt;&lt;blockquote style=&quot;margin: 0 0 0 40px ; border: none ; padding: 0px&quot;&gt;&lt;div&gt;&lt;font style=&quot;font-size: 12px;&quot; face=&quot;PingFang SC&quot;&gt;&lt;span style=&quot;font-size: 13px&quot;&gt;&lt;br&gt;&lt;/span&gt;&lt;/font&gt;&lt;/div&gt;&lt;/blockquote&gt;&lt;/blockquote&gt;" style="text;html=1;strokeColor=none;fillColor=none;spacing=5;spacingTop=-20;whiteSpace=wrap;overflow=hidden;rounded=0;sketch=0;fontFamily=Helvetica;fontSize=12;fontColor=default;startSize=20;" parent="1" vertex="1">
          <mxGeometry x="1180" y="90" width="280" height="610" as="geometry" />
        </mxCell>
        <mxCell id="XvKaKWLarS6UlJgX8GEv-8" value="计划审核" style="shape=step;perimeter=stepPerimeter;fixedSize=1;points=[];fillColor=#E6E6E6;" parent="1" vertex="1">
          <mxGeometry x="390" y="10" width="140" height="57" as="geometry" />
        </mxCell>
        <mxCell id="XvKaKWLarS6UlJgX8GEv-9" value="业务鉴定审核流程" style="swimlane;childLayout=stackLayout;resizeParent=1;resizeParentMax=0;horizontal=1;startSize=20;horizontalStack=0;rounded=0;sketch=0;fontFamily=Helvetica;fontSize=12;fontColor=default;strokeColor=default;fillColor=#E6E6E6;" parent="1" vertex="1">
          <mxGeometry x="19" y="73" width="1150" height="450" as="geometry" />
        </mxCell>
        <mxCell id="XvKaKWLarS6UlJgX8GEv-10" value="OM" style="swimlane;startSize=20;horizontal=0;rounded=0;sketch=0;fontFamily=Helvetica;fontSize=12;fontColor=default;strokeColor=default;fillColor=#E6E6E6;" parent="XvKaKWLarS6UlJgX8GEv-9" vertex="1">
          <mxGeometry y="20" width="1150" height="130" as="geometry" />
        </mxCell>
        <mxCell id="XvKaKWLarS6UlJgX8GEv-11" style="edgeStyle=orthogonalEdgeStyle;rounded=0;orthogonalLoop=1;jettySize=auto;html=1;entryX=0;entryY=0.5;entryDx=0;entryDy=0;" parent="XvKaKWLarS6UlJgX8GEv-10" source="XvKaKWLarS6UlJgX8GEv-12" target="XvKaKWLarS6UlJgX8GEv-13" edge="1">
          <mxGeometry relative="1" as="geometry" />
        </mxCell>
        <mxCell id="XvKaKWLarS6UlJgX8GEv-12" value="转接鉴定申请" style="rounded=0;whiteSpace=wrap;html=1;sketch=0;fontFamily=Helvetica;fontSize=12;fontColor=default;startSize=20;strokeColor=default;fillColor=#E6E6E6;" parent="XvKaKWLarS6UlJgX8GEv-10" vertex="1">
          <mxGeometry x="317" y="50" width="100" height="30" as="geometry" />
        </mxCell>
        <mxCell id="XvKaKWLarS6UlJgX8GEv-13" value="是否审核通过" style="rhombus;whiteSpace=wrap;html=1;rounded=0;sketch=0;fontFamily=Helvetica;fontSize=12;fontColor=default;startSize=20;strokeColor=default;fillColor=#E6E6E6;" parent="XvKaKWLarS6UlJgX8GEv-10" vertex="1">
          <mxGeometry x="553" y="35" width="100" height="60" as="geometry" />
        </mxCell>
        <mxCell id="XvKaKWLarS6UlJgX8GEv-14" value="填写鉴定表" style="rounded=0;whiteSpace=wrap;html=1;sketch=0;fontFamily=Helvetica;fontSize=12;fontColor=default;startSize=20;strokeColor=default;fillColor=#E6E6E6;" parent="XvKaKWLarS6UlJgX8GEv-10" vertex="1">
          <mxGeometry x="1027" y="50" width="100" height="30" as="geometry" />
        </mxCell>
        <mxCell id="XvKaKWLarS6UlJgX8GEv-15" style="edgeStyle=orthogonalEdgeStyle;rounded=0;orthogonalLoop=1;jettySize=auto;html=1;entryX=0.5;entryY=1;entryDx=0;entryDy=0;" parent="XvKaKWLarS6UlJgX8GEv-9" source="XvKaKWLarS6UlJgX8GEv-26" target="XvKaKWLarS6UlJgX8GEv-12" edge="1">
          <mxGeometry relative="1" as="geometry" />
        </mxCell>
        <mxCell id="XvKaKWLarS6UlJgX8GEv-16" value="OC" style="swimlane;startSize=20;horizontal=0;rounded=0;sketch=0;fontFamily=Helvetica;fontSize=12;fontColor=default;strokeColor=default;fillColor=#E6E6E6;" parent="XvKaKWLarS6UlJgX8GEv-9" vertex="1">
          <mxGeometry y="150" width="1150" height="300" as="geometry" />
        </mxCell>
        <mxCell id="XvKaKWLarS6UlJgX8GEv-17" style="edgeStyle=orthogonalEdgeStyle;rounded=1;sketch=0;orthogonalLoop=1;jettySize=auto;html=1;entryX=0;entryY=0.5;entryDx=0;entryDy=0;fontFamily=Helvetica;fontSize=12;fontColor=default;startArrow=none;startFill=0;endArrow=classicThin;endFill=1;startSize=20;" parent="XvKaKWLarS6UlJgX8GEv-16" source="XvKaKWLarS6UlJgX8GEv-18" target="XvKaKWLarS6UlJgX8GEv-25" edge="1">
          <mxGeometry relative="1" as="geometry" />
        </mxCell>
        <mxCell id="XvKaKWLarS6UlJgX8GEv-18" value="鉴定申请通知" style="rounded=0;whiteSpace=wrap;html=1;sketch=0;fontFamily=Helvetica;fontSize=12;fontColor=default;startSize=20;strokeColor=default;fillColor=#E6E6E6;" parent="XvKaKWLarS6UlJgX8GEv-16" vertex="1">
          <mxGeometry x="175" y="128.75" width="100" height="30" as="geometry" />
        </mxCell>
        <mxCell id="XvKaKWLarS6UlJgX8GEv-19" style="edgeStyle=orthogonalEdgeStyle;rounded=0;orthogonalLoop=1;jettySize=auto;html=1;entryX=0;entryY=0.5;entryDx=0;entryDy=0;" parent="XvKaKWLarS6UlJgX8GEv-16" source="XvKaKWLarS6UlJgX8GEv-25" target="XvKaKWLarS6UlJgX8GEv-29" edge="1">
          <mxGeometry relative="1" as="geometry" />
        </mxCell>
        <mxCell id="XvKaKWLarS6UlJgX8GEv-20" value="是" style="edgeLabel;html=1;align=center;verticalAlign=middle;resizable=0;points=[];" parent="XvKaKWLarS6UlJgX8GEv-19" vertex="1" connectable="0">
          <mxGeometry x="0.0971" y="3" relative="1" as="geometry">
            <mxPoint as="offset" />
          </mxGeometry>
        </mxCell>
        <mxCell id="XvKaKWLarS6UlJgX8GEv-21" style="edgeStyle=orthogonalEdgeStyle;rounded=0;orthogonalLoop=1;jettySize=auto;html=1;" parent="XvKaKWLarS6UlJgX8GEv-16" source="XvKaKWLarS6UlJgX8GEv-25" target="XvKaKWLarS6UlJgX8GEv-27" edge="1">
          <mxGeometry relative="1" as="geometry" />
        </mxCell>
        <mxCell id="XvKaKWLarS6UlJgX8GEv-22" value="否" style="edgeLabel;html=1;align=center;verticalAlign=middle;resizable=0;points=[];" parent="XvKaKWLarS6UlJgX8GEv-21" vertex="1" connectable="0">
          <mxGeometry x="-0.1289" y="-1" relative="1" as="geometry">
            <mxPoint as="offset" />
          </mxGeometry>
        </mxCell>
        <mxCell id="XvKaKWLarS6UlJgX8GEv-23" style="edgeStyle=orthogonalEdgeStyle;rounded=0;orthogonalLoop=1;jettySize=auto;html=1;entryX=0.5;entryY=1;entryDx=0;entryDy=0;" parent="XvKaKWLarS6UlJgX8GEv-16" source="XvKaKWLarS6UlJgX8GEv-25" target="XvKaKWLarS6UlJgX8GEv-26" edge="1">
          <mxGeometry relative="1" as="geometry" />
        </mxCell>
        <mxCell id="XvKaKWLarS6UlJgX8GEv-24" value="否" style="edgeLabel;html=1;align=center;verticalAlign=middle;resizable=0;points=[];" parent="XvKaKWLarS6UlJgX8GEv-23" vertex="1" connectable="0">
          <mxGeometry x="-0.1927" y="-3" relative="1" as="geometry">
            <mxPoint as="offset" />
          </mxGeometry>
        </mxCell>
        <mxCell id="XvKaKWLarS6UlJgX8GEv-25" value="是否处理" style="rhombus;whiteSpace=wrap;html=1;rounded=0;sketch=0;fontFamily=Helvetica;fontSize=12;fontColor=default;startSize=20;strokeColor=default;fillColor=#E6E6E6;" parent="XvKaKWLarS6UlJgX8GEv-16" vertex="1">
          <mxGeometry x="320" y="110" width="94" height="67.5" as="geometry" />
        </mxCell>
        <mxCell id="XvKaKWLarS6UlJgX8GEv-26" value="7天内未处理" style="rounded=0;whiteSpace=wrap;html=1;sketch=0;fontFamily=Helvetica;fontSize=12;fontColor=default;startSize=20;strokeColor=default;fillColor=#E6E6E6;" parent="XvKaKWLarS6UlJgX8GEv-16" vertex="1">
          <mxGeometry x="317" y="30" width="100" height="30" as="geometry" />
        </mxCell>
        <mxCell id="XvKaKWLarS6UlJgX8GEv-27" value="OC岗位变更" style="rounded=0;whiteSpace=wrap;html=1;sketch=0;fontFamily=Helvetica;fontSize=12;fontColor=default;startSize=20;strokeColor=default;fillColor=#E6E6E6;" parent="XvKaKWLarS6UlJgX8GEv-16" vertex="1">
          <mxGeometry x="317" y="235" width="100" height="31.75" as="geometry" />
        </mxCell>
        <mxCell id="XvKaKWLarS6UlJgX8GEv-28" value="填写鉴定表" style="rounded=0;whiteSpace=wrap;html=1;sketch=0;fontFamily=Helvetica;fontSize=12;fontColor=default;startSize=20;strokeColor=default;fillColor=#E6E6E6;" parent="XvKaKWLarS6UlJgX8GEv-16" vertex="1">
          <mxGeometry x="947" y="226" width="100" height="30" as="geometry" />
        </mxCell>
        <mxCell id="XvKaKWLarS6UlJgX8GEv-29" value="是否审核通过" style="rhombus;whiteSpace=wrap;html=1;rounded=0;sketch=0;fontFamily=Helvetica;fontSize=12;fontColor=default;startSize=20;strokeColor=default;fillColor=#E6E6E6;" parent="XvKaKWLarS6UlJgX8GEv-16" vertex="1">
          <mxGeometry x="478" y="112.25" width="99" height="63" as="geometry" />
        </mxCell>
        <mxCell id="XvKaKWLarS6UlJgX8GEv-30" value="3" style="ellipse;whiteSpace=wrap;html=1;aspect=fixed;rounded=0;sketch=0;fontFamily=Helvetica;fontSize=12;fontColor=#ffffff;startSize=20;strokeColor=#B20000;fillColor=#e51400;" parent="XvKaKWLarS6UlJgX8GEv-16" vertex="1">
          <mxGeometry x="385" y="157.5" width="20" height="20" as="geometry" />
        </mxCell>
        <mxCell id="XvKaKWLarS6UlJgX8GEv-31" value="4" style="ellipse;whiteSpace=wrap;html=1;aspect=fixed;rounded=0;sketch=0;fontFamily=Helvetica;fontSize=12;fontColor=#ffffff;startSize=20;strokeColor=#B20000;fillColor=#e51400;" parent="XvKaKWLarS6UlJgX8GEv-16" vertex="1">
          <mxGeometry x="551" y="155.25" width="20" height="20" as="geometry" />
        </mxCell>
        <mxCell id="XvKaKWLarS6UlJgX8GEv-32" value="学员" style="swimlane;startSize=20;horizontal=0;rounded=0;sketch=0;fontFamily=Helvetica;fontSize=12;fontColor=default;strokeColor=default;fillColor=#E6E6E6;" parent="1" vertex="1">
          <mxGeometry x="19" y="653" width="1150" height="150" as="geometry" />
        </mxCell>
        <mxCell id="XvKaKWLarS6UlJgX8GEv-33" value="准备鉴定" style="rounded=0;whiteSpace=wrap;html=1;sketch=0;fontFamily=Helvetica;fontSize=12;fontColor=default;startSize=20;strokeColor=default;fillColor=#E6E6E6;" parent="XvKaKWLarS6UlJgX8GEv-32" vertex="1">
          <mxGeometry x="740" y="63" width="100" height="30" as="geometry" />
        </mxCell>
        <mxCell id="XvKaKWLarS6UlJgX8GEv-34" value="查看鉴定结果" style="rounded=0;whiteSpace=wrap;html=1;sketch=0;fontFamily=Helvetica;fontSize=12;fontColor=default;startSize=20;strokeColor=default;fillColor=#E6E6E6;" parent="XvKaKWLarS6UlJgX8GEv-32" vertex="1">
          <mxGeometry x="947" y="63" width="100" height="30" as="geometry" />
        </mxCell>
        <mxCell id="XvKaKWLarS6UlJgX8GEv-35" style="edgeStyle=orthogonalEdgeStyle;rounded=1;sketch=0;orthogonalLoop=1;jettySize=auto;html=1;entryX=0.5;entryY=1;entryDx=0;entryDy=0;fontFamily=Helvetica;fontSize=12;fontColor=default;startArrow=none;startFill=0;endArrow=classicThin;endFill=1;startSize=20;" parent="1" source="XvKaKWLarS6UlJgX8GEv-38" target="XvKaKWLarS6UlJgX8GEv-18" edge="1">
          <mxGeometry relative="1" as="geometry" />
        </mxCell>
        <mxCell id="XvKaKWLarS6UlJgX8GEv-36" value="RGM" style="swimlane;startSize=20;horizontal=0;rounded=0;sketch=0;fontFamily=Helvetica;fontSize=12;fontColor=default;strokeColor=default;fillColor=#E6E6E6;" parent="1" vertex="1">
          <mxGeometry x="19" y="523" width="1150" height="130" as="geometry" />
        </mxCell>
        <mxCell id="XvKaKWLarS6UlJgX8GEv-37" value="选择PRM学员" style="rounded=0;whiteSpace=wrap;html=1;sketch=0;fontFamily=Helvetica;fontSize=12;fontColor=default;startSize=20;strokeColor=default;fillColor=#E6E6E6;" parent="XvKaKWLarS6UlJgX8GEv-36" vertex="1">
          <mxGeometry x="45" y="47" width="100" height="30" as="geometry" />
        </mxCell>
        <mxCell id="XvKaKWLarS6UlJgX8GEv-38" value="发起鉴定申请" style="rounded=0;whiteSpace=wrap;html=1;sketch=0;fontFamily=Helvetica;fontSize=12;fontColor=default;startSize=20;strokeColor=default;fillColor=#E6E6E6;" parent="XvKaKWLarS6UlJgX8GEv-36" vertex="1">
          <mxGeometry x="175" y="47" width="100" height="30" as="geometry" />
        </mxCell>
        <mxCell id="XvKaKWLarS6UlJgX8GEv-39" style="edgeStyle=orthogonalEdgeStyle;rounded=1;sketch=0;orthogonalLoop=1;jettySize=auto;html=1;entryX=0;entryY=0.5;entryDx=0;entryDy=0;fontFamily=Helvetica;fontSize=12;fontColor=default;startArrow=none;startFill=0;endArrow=classicThin;endFill=1;startSize=20;" parent="XvKaKWLarS6UlJgX8GEv-36" source="XvKaKWLarS6UlJgX8GEv-37" target="XvKaKWLarS6UlJgX8GEv-38" edge="1">
          <mxGeometry relative="1" as="geometry" />
        </mxCell>
        <mxCell id="XvKaKWLarS6UlJgX8GEv-40" value="1" style="ellipse;whiteSpace=wrap;html=1;aspect=fixed;rounded=0;sketch=0;fontFamily=Helvetica;fontSize=12;fontColor=#ffffff;startSize=20;strokeColor=#B20000;fillColor=#e51400;" parent="XvKaKWLarS6UlJgX8GEv-36" vertex="1">
          <mxGeometry x="85" y="77" width="20" height="20" as="geometry" />
        </mxCell>
        <mxCell id="XvKaKWLarS6UlJgX8GEv-41" value="2" style="ellipse;whiteSpace=wrap;html=1;aspect=fixed;rounded=0;sketch=0;fontFamily=Helvetica;fontSize=12;fontColor=#ffffff;startSize=20;strokeColor=#B20000;fillColor=#e51400;" parent="XvKaKWLarS6UlJgX8GEv-36" vertex="1">
          <mxGeometry x="215" y="77" width="20" height="20" as="geometry" />
        </mxCell>
        <mxCell id="XvKaKWLarS6UlJgX8GEv-42" value="撤销申请" style="rounded=0;whiteSpace=wrap;html=1;sketch=0;fontFamily=Helvetica;fontSize=12;fontColor=default;startSize=20;strokeColor=default;fillColor=#E6E6E6;" parent="XvKaKWLarS6UlJgX8GEv-36" vertex="1">
          <mxGeometry x="317" y="47" width="100" height="30" as="geometry" />
        </mxCell>
        <mxCell id="XvKaKWLarS6UlJgX8GEv-43" value="重新申请" style="rounded=0;whiteSpace=wrap;html=1;sketch=0;fontFamily=Helvetica;fontSize=12;fontColor=default;startSize=20;strokeColor=default;fillColor=#E6E6E6;" parent="XvKaKWLarS6UlJgX8GEv-36" vertex="1">
          <mxGeometry x="553" y="47" width="100" height="30" as="geometry" />
        </mxCell>
        <mxCell id="XvKaKWLarS6UlJgX8GEv-44" value="通知学员" style="rounded=0;whiteSpace=wrap;html=1;sketch=0;fontFamily=Helvetica;fontSize=12;fontColor=default;startSize=20;strokeColor=default;fillColor=#E6E6E6;" parent="XvKaKWLarS6UlJgX8GEv-36" vertex="1">
          <mxGeometry x="740" y="47" width="100" height="30" as="geometry" />
        </mxCell>
        <mxCell id="XvKaKWLarS6UlJgX8GEv-45" value="5" style="ellipse;whiteSpace=wrap;html=1;aspect=fixed;rounded=0;sketch=0;fontFamily=Helvetica;fontSize=12;fontColor=#ffffff;startSize=20;strokeColor=#B20000;fillColor=#e51400;" parent="XvKaKWLarS6UlJgX8GEv-36" vertex="1">
          <mxGeometry x="808" y="17" width="25" height="25" as="geometry" />
        </mxCell>
        <mxCell id="XvKaKWLarS6UlJgX8GEv-46" style="edgeStyle=orthogonalEdgeStyle;rounded=0;orthogonalLoop=1;jettySize=auto;html=1;entryX=0.5;entryY=0;entryDx=0;entryDy=0;" parent="1" source="XvKaKWLarS6UlJgX8GEv-28" target="XvKaKWLarS6UlJgX8GEv-34" edge="1">
          <mxGeometry relative="1" as="geometry" />
        </mxCell>
        <mxCell id="XvKaKWLarS6UlJgX8GEv-47" value="更新鉴定表" style="edgeLabel;html=1;align=center;verticalAlign=middle;resizable=0;points=[];" parent="XvKaKWLarS6UlJgX8GEv-46" vertex="1" connectable="0">
          <mxGeometry x="-0.054" relative="1" as="geometry">
            <mxPoint y="1" as="offset" />
          </mxGeometry>
        </mxCell>
        <mxCell id="XvKaKWLarS6UlJgX8GEv-48" style="edgeStyle=orthogonalEdgeStyle;rounded=0;orthogonalLoop=1;jettySize=auto;html=1;dashed=1;" parent="1" source="XvKaKWLarS6UlJgX8GEv-13" target="XvKaKWLarS6UlJgX8GEv-44" edge="1">
          <mxGeometry relative="1" as="geometry" />
        </mxCell>
        <mxCell id="XvKaKWLarS6UlJgX8GEv-49" value="是" style="edgeLabel;html=1;align=center;verticalAlign=middle;resizable=0;points=[];" parent="XvKaKWLarS6UlJgX8GEv-48" vertex="1" connectable="0">
          <mxGeometry x="-0.7531" relative="1" as="geometry">
            <mxPoint x="1" as="offset" />
          </mxGeometry>
        </mxCell>
        <mxCell id="XvKaKWLarS6UlJgX8GEv-50" style="edgeStyle=orthogonalEdgeStyle;rounded=0;orthogonalLoop=1;jettySize=auto;html=1;dashed=1;" parent="1" source="XvKaKWLarS6UlJgX8GEv-13" target="XvKaKWLarS6UlJgX8GEv-43" edge="1">
          <mxGeometry relative="1" as="geometry" />
        </mxCell>
        <mxCell id="XvKaKWLarS6UlJgX8GEv-51" value="否" style="edgeLabel;html=1;align=center;verticalAlign=middle;resizable=0;points=[];" parent="XvKaKWLarS6UlJgX8GEv-50" vertex="1" connectable="0">
          <mxGeometry x="-0.7581" y="-1" relative="1" as="geometry">
            <mxPoint as="offset" />
          </mxGeometry>
        </mxCell>
        <mxCell id="XvKaKWLarS6UlJgX8GEv-52" style="edgeStyle=orthogonalEdgeStyle;rounded=0;orthogonalLoop=1;jettySize=auto;html=1;entryX=0;entryY=0.5;entryDx=0;entryDy=0;" parent="1" source="XvKaKWLarS6UlJgX8GEv-29" target="XvKaKWLarS6UlJgX8GEv-43" edge="1">
          <mxGeometry relative="1" as="geometry">
            <mxPoint x="529.5" y="710" as="targetPoint" />
          </mxGeometry>
        </mxCell>
        <mxCell id="XvKaKWLarS6UlJgX8GEv-53" value="否" style="edgeLabel;html=1;align=center;verticalAlign=middle;resizable=0;points=[];" parent="XvKaKWLarS6UlJgX8GEv-52" vertex="1" connectable="0">
          <mxGeometry x="-0.2612" y="2" relative="1" as="geometry">
            <mxPoint as="offset" />
          </mxGeometry>
        </mxCell>
        <mxCell id="XvKaKWLarS6UlJgX8GEv-54" style="edgeStyle=orthogonalEdgeStyle;rounded=0;orthogonalLoop=1;jettySize=auto;html=1;" parent="1" source="XvKaKWLarS6UlJgX8GEv-44" target="XvKaKWLarS6UlJgX8GEv-33" edge="1">
          <mxGeometry relative="1" as="geometry" />
        </mxCell>
        <mxCell id="XvKaKWLarS6UlJgX8GEv-55" style="edgeStyle=orthogonalEdgeStyle;rounded=0;orthogonalLoop=1;jettySize=auto;html=1;" parent="1" source="XvKaKWLarS6UlJgX8GEv-27" target="XvKaKWLarS6UlJgX8GEv-42" edge="1">
          <mxGeometry relative="1" as="geometry" />
        </mxCell>
        <mxCell id="XvKaKWLarS6UlJgX8GEv-56" style="edgeStyle=orthogonalEdgeStyle;rounded=0;orthogonalLoop=1;jettySize=auto;html=1;entryX=0;entryY=0.5;entryDx=0;entryDy=0;" parent="1" source="XvKaKWLarS6UlJgX8GEv-33" target="XvKaKWLarS6UlJgX8GEv-28" edge="1">
          <mxGeometry relative="1" as="geometry" />
        </mxCell>
        <mxCell id="XvKaKWLarS6UlJgX8GEv-57" style="edgeStyle=orthogonalEdgeStyle;rounded=0;orthogonalLoop=1;jettySize=auto;html=1;entryX=0;entryY=0.5;entryDx=0;entryDy=0;dashed=1;" parent="1" source="XvKaKWLarS6UlJgX8GEv-33" target="XvKaKWLarS6UlJgX8GEv-14" edge="1">
          <mxGeometry relative="1" as="geometry" />
        </mxCell>
        <mxCell id="XvKaKWLarS6UlJgX8GEv-58" value="OM鉴定" style="edgeLabel;html=1;align=center;verticalAlign=middle;resizable=0;points=[];" parent="XvKaKWLarS6UlJgX8GEv-57" vertex="1" connectable="0">
          <mxGeometry x="0.3382" y="-3" relative="1" as="geometry">
            <mxPoint as="offset" />
          </mxGeometry>
        </mxCell>
        <mxCell id="XvKaKWLarS6UlJgX8GEv-59" style="edgeStyle=orthogonalEdgeStyle;rounded=0;orthogonalLoop=1;jettySize=auto;html=1;entryX=1;entryY=0.5;entryDx=0;entryDy=0;dashed=1;" parent="1" source="XvKaKWLarS6UlJgX8GEv-14" target="XvKaKWLarS6UlJgX8GEv-34" edge="1">
          <mxGeometry relative="1" as="geometry" />
        </mxCell>
        <mxCell id="XvKaKWLarS6UlJgX8GEv-60" value="更新鉴定结果" style="edgeLabel;html=1;align=center;verticalAlign=middle;resizable=0;points=[];" parent="XvKaKWLarS6UlJgX8GEv-59" vertex="1" connectable="0">
          <mxGeometry x="-0.4451" y="4" relative="1" as="geometry">
            <mxPoint as="offset" />
          </mxGeometry>
        </mxCell>
        <mxCell id="XvKaKWLarS6UlJgX8GEv-61" style="edgeStyle=orthogonalEdgeStyle;rounded=0;orthogonalLoop=1;jettySize=auto;html=1;entryX=0;entryY=0.5;entryDx=0;entryDy=0;" parent="1" source="XvKaKWLarS6UlJgX8GEv-29" target="XvKaKWLarS6UlJgX8GEv-44" edge="1">
          <mxGeometry relative="1" as="geometry">
            <Array as="points">
              <mxPoint x="703" y="367" />
              <mxPoint x="703" y="596" />
            </Array>
          </mxGeometry>
        </mxCell>
        <mxCell id="XvKaKWLarS6UlJgX8GEv-62" value="是" style="edgeLabel;html=1;align=center;verticalAlign=middle;resizable=0;points=[];" parent="XvKaKWLarS6UlJgX8GEv-61" vertex="1" connectable="0">
          <mxGeometry x="-0.6889" y="-1" relative="1" as="geometry">
            <mxPoint as="offset" />
          </mxGeometry>
        </mxCell>
      </root>
    </mxGraphModel>
  </diagram>
  <diagram id="cYgSWIcfOOzoEeDlF8fg" name="单元/系统鉴定">
    <mxGraphModel dx="1426" dy="826" grid="1" gridSize="10" guides="1" tooltips="1" connect="1" arrows="1" fold="1" page="0" pageScale="1" pageWidth="827" pageHeight="1169" math="0" shadow="0">
      <root>
        <mxCell id="0" />
        <mxCell id="1" parent="0" />
        <mxCell id="b6gE57P9MLn2lEkXFf7w-1" value="系统鉴定流程" style="swimlane;childLayout=stackLayout;resizeParent=1;resizeParentMax=0;horizontal=1;startSize=20;horizontalStack=0;rounded=0;sketch=0;fontFamily=Helvetica;fontSize=12;fontColor=default;strokeColor=default;fillColor=#E6E6E6;" parent="1" vertex="1">
          <mxGeometry x="37" y="170" width="1093" height="350" as="geometry" />
        </mxCell>
        <mxCell id="b6gE57P9MLn2lEkXFf7w-2" style="edgeStyle=orthogonalEdgeStyle;rounded=1;sketch=0;orthogonalLoop=1;jettySize=auto;html=1;fontFamily=Helvetica;fontSize=12;fontColor=default;startArrow=none;startFill=0;endArrow=classicThin;endFill=1;startSize=20;" parent="b6gE57P9MLn2lEkXFf7w-1" source="b6gE57P9MLn2lEkXFf7w-14" target="b6gE57P9MLn2lEkXFf7w-33" edge="1">
          <mxGeometry relative="1" as="geometry" />
        </mxCell>
        <mxCell id="b6gE57P9MLn2lEkXFf7w-3" style="edgeStyle=orthogonalEdgeStyle;rounded=1;sketch=0;orthogonalLoop=1;jettySize=auto;html=1;entryX=0.5;entryY=1;entryDx=0;entryDy=0;fontFamily=Helvetica;fontSize=12;fontColor=default;startArrow=none;startFill=0;endArrow=classicThin;endFill=1;startSize=20;dashed=1;" parent="b6gE57P9MLn2lEkXFf7w-1" source="b6gE57P9MLn2lEkXFf7w-31" target="b6gE57P9MLn2lEkXFf7w-17" edge="1">
          <mxGeometry relative="1" as="geometry" />
        </mxCell>
        <mxCell id="b6gE57P9MLn2lEkXFf7w-4" value="否" style="edgeLabel;html=1;align=center;verticalAlign=middle;resizable=0;points=[];fontSize=12;fontFamily=Helvetica;fontColor=default;" parent="b6gE57P9MLn2lEkXFf7w-3" vertex="1" connectable="0">
          <mxGeometry x="-0.2095" y="-1" relative="1" as="geometry">
            <mxPoint as="offset" />
          </mxGeometry>
        </mxCell>
        <mxCell id="b6gE57P9MLn2lEkXFf7w-5" style="edgeStyle=orthogonalEdgeStyle;rounded=1;sketch=0;orthogonalLoop=1;jettySize=auto;html=1;entryX=0.5;entryY=1;entryDx=0;entryDy=0;fontFamily=Helvetica;fontSize=12;fontColor=default;startArrow=none;startFill=0;endArrow=classicThin;endFill=1;startSize=20;" parent="b6gE57P9MLn2lEkXFf7w-1" source="b6gE57P9MLn2lEkXFf7w-31" target="b6gE57P9MLn2lEkXFf7w-18" edge="1">
          <mxGeometry relative="1" as="geometry" />
        </mxCell>
        <mxCell id="b6gE57P9MLn2lEkXFf7w-6" value="是" style="edgeLabel;html=1;align=center;verticalAlign=middle;resizable=0;points=[];fontSize=12;fontFamily=Helvetica;fontColor=default;" parent="b6gE57P9MLn2lEkXFf7w-5" vertex="1" connectable="0">
          <mxGeometry x="-0.4767" relative="1" as="geometry">
            <mxPoint as="offset" />
          </mxGeometry>
        </mxCell>
        <mxCell id="b6gE57P9MLn2lEkXFf7w-7" style="edgeStyle=orthogonalEdgeStyle;rounded=1;sketch=0;orthogonalLoop=1;jettySize=auto;html=1;entryX=0.5;entryY=1;entryDx=0;entryDy=0;fontFamily=Helvetica;fontSize=12;fontColor=default;startArrow=none;startFill=0;endArrow=classicThin;endFill=1;startSize=20;" parent="b6gE57P9MLn2lEkXFf7w-1" source="b6gE57P9MLn2lEkXFf7w-34" target="b6gE57P9MLn2lEkXFf7w-19" edge="1">
          <mxGeometry relative="1" as="geometry" />
        </mxCell>
        <mxCell id="b6gE57P9MLn2lEkXFf7w-8" value="更新鉴定结果" style="edgeLabel;html=1;align=center;verticalAlign=middle;resizable=0;points=[];fontSize=12;fontFamily=Helvetica;fontColor=default;" parent="b6gE57P9MLn2lEkXFf7w-7" vertex="1" connectable="0">
          <mxGeometry x="-0.1445" y="-1" relative="1" as="geometry">
            <mxPoint as="offset" />
          </mxGeometry>
        </mxCell>
        <mxCell id="b6gE57P9MLn2lEkXFf7w-9" style="edgeStyle=orthogonalEdgeStyle;rounded=1;sketch=0;orthogonalLoop=1;jettySize=auto;html=1;entryX=0;entryY=0.5;entryDx=0;entryDy=0;fontFamily=Helvetica;fontSize=12;fontColor=default;startArrow=none;startFill=0;endArrow=classicThin;endFill=1;startSize=20;" parent="b6gE57P9MLn2lEkXFf7w-1" source="b6gE57P9MLn2lEkXFf7w-18" target="b6gE57P9MLn2lEkXFf7w-34" edge="1">
          <mxGeometry relative="1" as="geometry" />
        </mxCell>
        <mxCell id="b6gE57P9MLn2lEkXFf7w-10" style="edgeStyle=orthogonalEdgeStyle;rounded=1;sketch=0;orthogonalLoop=1;jettySize=auto;html=1;entryX=0.5;entryY=1;entryDx=0;entryDy=0;fontFamily=Helvetica;fontSize=12;fontColor=default;startArrow=none;startFill=0;endArrow=classicThin;endFill=1;startSize=20;" parent="b6gE57P9MLn2lEkXFf7w-1" source="b6gE57P9MLn2lEkXFf7w-30" target="b6gE57P9MLn2lEkXFf7w-21" edge="1">
          <mxGeometry relative="1" as="geometry" />
        </mxCell>
        <mxCell id="b6gE57P9MLn2lEkXFf7w-11" value="学员" style="swimlane;startSize=20;horizontal=0;rounded=0;sketch=0;fontFamily=Helvetica;fontSize=12;fontColor=default;strokeColor=default;fillColor=#E6E6E6;" parent="b6gE57P9MLn2lEkXFf7w-1" vertex="1">
          <mxGeometry y="20" width="1093" height="150" as="geometry" />
        </mxCell>
        <mxCell id="b6gE57P9MLn2lEkXFf7w-12" style="edgeStyle=orthogonalEdgeStyle;rounded=1;sketch=0;orthogonalLoop=1;jettySize=auto;html=1;entryX=0;entryY=0.5;entryDx=0;entryDy=0;fontFamily=Helvetica;fontSize=12;fontColor=default;startArrow=none;startFill=0;endArrow=classicThin;endFill=1;startSize=20;" parent="b6gE57P9MLn2lEkXFf7w-11" source="b6gE57P9MLn2lEkXFf7w-13" target="b6gE57P9MLn2lEkXFf7w-26" edge="1">
          <mxGeometry relative="1" as="geometry" />
        </mxCell>
        <mxCell id="b6gE57P9MLn2lEkXFf7w-13" value="学习计划详情" style="rounded=0;whiteSpace=wrap;html=1;sketch=0;fontFamily=Helvetica;fontSize=12;fontColor=default;startSize=20;strokeColor=default;fillColor=#E6E6E6;" parent="b6gE57P9MLn2lEkXFf7w-11" vertex="1">
          <mxGeometry x="170" y="50" width="100" height="30" as="geometry" />
        </mxCell>
        <mxCell id="b6gE57P9MLn2lEkXFf7w-14" value="提交计划审核" style="rounded=0;whiteSpace=wrap;html=1;sketch=0;fontFamily=Helvetica;fontSize=12;fontColor=default;startSize=20;strokeColor=default;fillColor=#E6E6E6;" parent="b6gE57P9MLn2lEkXFf7w-11" vertex="1">
          <mxGeometry x="430" y="50" width="100" height="30" as="geometry" />
        </mxCell>
        <mxCell id="b6gE57P9MLn2lEkXFf7w-15" style="edgeStyle=orthogonalEdgeStyle;rounded=1;sketch=0;orthogonalLoop=1;jettySize=auto;html=1;entryX=1;entryY=0.5;entryDx=0;entryDy=0;fontFamily=Helvetica;fontSize=12;fontColor=default;startArrow=none;startFill=0;endArrow=classicThin;endFill=1;startSize=20;dashed=1;" parent="b6gE57P9MLn2lEkXFf7w-11" source="b6gE57P9MLn2lEkXFf7w-17" target="b6gE57P9MLn2lEkXFf7w-14" edge="1">
          <mxGeometry relative="1" as="geometry" />
        </mxCell>
        <mxCell id="b6gE57P9MLn2lEkXFf7w-16" value="重新提交审核" style="edgeLabel;html=1;align=center;verticalAlign=middle;resizable=0;points=[];fontSize=12;fontFamily=Helvetica;fontColor=default;" parent="b6gE57P9MLn2lEkXFf7w-15" vertex="1" connectable="0">
          <mxGeometry x="-0.0827" y="1" relative="1" as="geometry">
            <mxPoint as="offset" />
          </mxGeometry>
        </mxCell>
        <mxCell id="b6gE57P9MLn2lEkXFf7w-17" value="重新完善学习内容" style="rounded=0;whiteSpace=wrap;html=1;sketch=0;fontFamily=Helvetica;fontSize=12;fontColor=default;startSize=20;strokeColor=default;fillColor=#E6E6E6;" parent="b6gE57P9MLn2lEkXFf7w-11" vertex="1">
          <mxGeometry x="690" y="50" width="100" height="30" as="geometry" />
        </mxCell>
        <mxCell id="b6gE57P9MLn2lEkXFf7w-18" value="准备鉴定" style="rounded=0;whiteSpace=wrap;html=1;sketch=0;fontFamily=Helvetica;fontSize=12;fontColor=default;startSize=20;strokeColor=default;fillColor=#E6E6E6;" parent="b6gE57P9MLn2lEkXFf7w-11" vertex="1">
          <mxGeometry x="820" y="50" width="100" height="30" as="geometry" />
        </mxCell>
        <mxCell id="b6gE57P9MLn2lEkXFf7w-19" value="查看鉴定结果" style="rounded=0;whiteSpace=wrap;html=1;sketch=0;fontFamily=Helvetica;fontSize=12;fontColor=default;startSize=20;strokeColor=default;fillColor=#E6E6E6;" parent="b6gE57P9MLn2lEkXFf7w-11" vertex="1">
          <mxGeometry x="980" y="50" width="100" height="30" as="geometry" />
        </mxCell>
        <mxCell id="b6gE57P9MLn2lEkXFf7w-20" style="edgeStyle=orthogonalEdgeStyle;rounded=1;sketch=0;orthogonalLoop=1;jettySize=auto;html=1;entryX=0;entryY=0.5;entryDx=0;entryDy=0;fontFamily=Helvetica;fontSize=12;fontColor=default;startArrow=none;startFill=0;endArrow=classicThin;endFill=1;startSize=20;" parent="b6gE57P9MLn2lEkXFf7w-11" source="b6gE57P9MLn2lEkXFf7w-21" target="b6gE57P9MLn2lEkXFf7w-13" edge="1">
          <mxGeometry relative="1" as="geometry" />
        </mxCell>
        <mxCell id="b6gE57P9MLn2lEkXFf7w-21" value="学习计划通知" style="rounded=0;whiteSpace=wrap;html=1;sketch=0;fontFamily=Helvetica;fontSize=12;fontColor=default;startSize=20;strokeColor=default;fillColor=#E6E6E6;" parent="b6gE57P9MLn2lEkXFf7w-11" vertex="1">
          <mxGeometry x="40" y="50" width="100" height="30" as="geometry" />
        </mxCell>
        <mxCell id="b6gE57P9MLn2lEkXFf7w-22" value="2" style="ellipse;whiteSpace=wrap;html=1;aspect=fixed;rounded=0;sketch=0;fontFamily=Helvetica;fontSize=12;fontColor=#ffffff;startSize=20;strokeColor=#B20000;fillColor=#e51400;" parent="b6gE57P9MLn2lEkXFf7w-11" vertex="1">
          <mxGeometry x="90" y="80" width="20" height="20" as="geometry" />
        </mxCell>
        <mxCell id="b6gE57P9MLn2lEkXFf7w-23" value="3" style="ellipse;whiteSpace=wrap;html=1;aspect=fixed;rounded=0;sketch=0;fontFamily=Helvetica;fontSize=12;fontColor=#ffffff;startSize=20;strokeColor=#B20000;fillColor=#e51400;" parent="b6gE57P9MLn2lEkXFf7w-11" vertex="1">
          <mxGeometry x="210" y="80" width="20" height="20" as="geometry" />
        </mxCell>
        <mxCell id="b6gE57P9MLn2lEkXFf7w-24" value="4" style="ellipse;whiteSpace=wrap;html=1;aspect=fixed;rounded=0;sketch=0;fontFamily=Helvetica;fontSize=12;fontColor=#ffffff;startSize=20;strokeColor=#B20000;fillColor=#e51400;" parent="b6gE57P9MLn2lEkXFf7w-11" vertex="1">
          <mxGeometry x="344" y="80" width="20" height="20" as="geometry" />
        </mxCell>
        <mxCell id="b6gE57P9MLn2lEkXFf7w-25" style="edgeStyle=orthogonalEdgeStyle;rounded=1;sketch=0;orthogonalLoop=1;jettySize=auto;html=1;entryX=0;entryY=0.5;entryDx=0;entryDy=0;fontFamily=Helvetica;fontSize=12;fontColor=default;startArrow=none;startFill=0;endArrow=classicThin;endFill=1;startSize=20;" parent="b6gE57P9MLn2lEkXFf7w-11" source="b6gE57P9MLn2lEkXFf7w-26" target="b6gE57P9MLn2lEkXFf7w-14" edge="1">
          <mxGeometry relative="1" as="geometry" />
        </mxCell>
        <mxCell id="b6gE57P9MLn2lEkXFf7w-26" value="完成学习内容" style="rounded=0;whiteSpace=wrap;html=1;sketch=0;fontFamily=Helvetica;fontSize=12;fontColor=default;startSize=20;strokeColor=default;fillColor=#E6E6E6;" parent="b6gE57P9MLn2lEkXFf7w-11" vertex="1">
          <mxGeometry x="300" y="50" width="100" height="30" as="geometry" />
        </mxCell>
        <mxCell id="b6gE57P9MLn2lEkXFf7w-27" style="edgeStyle=orthogonalEdgeStyle;rounded=1;sketch=0;orthogonalLoop=1;jettySize=auto;html=1;exitX=0.5;exitY=1;exitDx=0;exitDy=0;fontFamily=Helvetica;fontSize=12;fontColor=default;startArrow=none;startFill=0;endArrow=classicThin;endFill=1;startSize=20;" parent="b6gE57P9MLn2lEkXFf7w-11" source="b6gE57P9MLn2lEkXFf7w-19" target="b6gE57P9MLn2lEkXFf7w-19" edge="1">
          <mxGeometry relative="1" as="geometry" />
        </mxCell>
        <mxCell id="b6gE57P9MLn2lEkXFf7w-28" value="5" style="ellipse;whiteSpace=wrap;html=1;aspect=fixed;rounded=0;sketch=0;fontFamily=Helvetica;fontSize=12;fontColor=#ffffff;startSize=20;strokeColor=#B20000;fillColor=#e51400;" parent="b6gE57P9MLn2lEkXFf7w-11" vertex="1">
          <mxGeometry x="480" y="80" width="20" height="20" as="geometry" />
        </mxCell>
        <mxCell id="b6gE57P9MLn2lEkXFf7w-29" value="RGM/首席品牌大使/咖啡主管" style="swimlane;startSize=20;horizontal=0;rounded=0;sketch=0;fontFamily=Helvetica;fontSize=12;fontColor=default;strokeColor=default;fillColor=#E6E6E6;" parent="b6gE57P9MLn2lEkXFf7w-1" vertex="1">
          <mxGeometry y="170" width="1093" height="180" as="geometry" />
        </mxCell>
        <mxCell id="b6gE57P9MLn2lEkXFf7w-30" value="制定学习计划" style="rounded=0;whiteSpace=wrap;html=1;sketch=0;fontFamily=Helvetica;fontSize=12;fontColor=default;startSize=20;strokeColor=default;fillColor=#E6E6E6;" parent="b6gE57P9MLn2lEkXFf7w-29" vertex="1">
          <mxGeometry x="40" y="70" width="100" height="30" as="geometry" />
        </mxCell>
        <mxCell id="b6gE57P9MLn2lEkXFf7w-31" value="是否审核通过" style="rhombus;whiteSpace=wrap;html=1;rounded=0;sketch=0;fontFamily=Helvetica;fontSize=12;fontColor=default;startSize=20;strokeColor=default;fillColor=#E6E6E6;" parent="b6gE57P9MLn2lEkXFf7w-29" vertex="1">
          <mxGeometry x="693" y="51.25" width="94" height="67.5" as="geometry" />
        </mxCell>
        <mxCell id="b6gE57P9MLn2lEkXFf7w-32" style="edgeStyle=orthogonalEdgeStyle;rounded=1;sketch=0;orthogonalLoop=1;jettySize=auto;html=1;entryX=0;entryY=0.5;entryDx=0;entryDy=0;fontFamily=Helvetica;fontSize=12;fontColor=default;startArrow=none;startFill=0;endArrow=classicThin;endFill=1;startSize=20;" parent="b6gE57P9MLn2lEkXFf7w-29" source="b6gE57P9MLn2lEkXFf7w-33" target="b6gE57P9MLn2lEkXFf7w-37" edge="1">
          <mxGeometry relative="1" as="geometry" />
        </mxCell>
        <mxCell id="b6gE57P9MLn2lEkXFf7w-33" value="计划审核通知" style="rounded=0;whiteSpace=wrap;html=1;sketch=0;fontFamily=Helvetica;fontSize=12;fontColor=default;startSize=20;strokeColor=default;fillColor=#E6E6E6;" parent="b6gE57P9MLn2lEkXFf7w-29" vertex="1">
          <mxGeometry x="430" y="70" width="100" height="30" as="geometry" />
        </mxCell>
        <mxCell id="b6gE57P9MLn2lEkXFf7w-34" value="填写鉴定表" style="rounded=0;whiteSpace=wrap;html=1;sketch=0;fontFamily=Helvetica;fontSize=12;fontColor=default;startSize=20;strokeColor=default;fillColor=#E6E6E6;" parent="b6gE57P9MLn2lEkXFf7w-29" vertex="1">
          <mxGeometry x="980" y="70" width="100" height="30" as="geometry" />
        </mxCell>
        <mxCell id="b6gE57P9MLn2lEkXFf7w-35" value="1" style="ellipse;whiteSpace=wrap;html=1;aspect=fixed;rounded=0;sketch=0;fontFamily=Helvetica;fontSize=12;fontColor=#ffffff;startSize=20;strokeColor=#B20000;fillColor=#e51400;" parent="b6gE57P9MLn2lEkXFf7w-29" vertex="1">
          <mxGeometry x="80" y="100" width="20" height="20" as="geometry" />
        </mxCell>
        <mxCell id="b6gE57P9MLn2lEkXFf7w-36" style="edgeStyle=orthogonalEdgeStyle;rounded=1;sketch=0;orthogonalLoop=1;jettySize=auto;html=1;entryX=0;entryY=0.5;entryDx=0;entryDy=0;fontFamily=Helvetica;fontSize=12;fontColor=default;startArrow=none;startFill=0;endArrow=classicThin;endFill=1;startSize=20;" parent="b6gE57P9MLn2lEkXFf7w-29" source="b6gE57P9MLn2lEkXFf7w-37" target="b6gE57P9MLn2lEkXFf7w-31" edge="1">
          <mxGeometry relative="1" as="geometry" />
        </mxCell>
        <mxCell id="b6gE57P9MLn2lEkXFf7w-37" value="计划审核详情" style="rounded=0;whiteSpace=wrap;html=1;sketch=0;fontFamily=Helvetica;fontSize=12;fontColor=default;startSize=20;strokeColor=default;fillColor=#E6E6E6;" parent="b6gE57P9MLn2lEkXFf7w-29" vertex="1">
          <mxGeometry x="560" y="70" width="100" height="30" as="geometry" />
        </mxCell>
        <mxCell id="b6gE57P9MLn2lEkXFf7w-38" value="6" style="ellipse;whiteSpace=wrap;html=1;aspect=fixed;rounded=0;sketch=0;fontFamily=Helvetica;fontSize=12;fontColor=#ffffff;startSize=20;strokeColor=#B20000;fillColor=#e51400;" parent="b6gE57P9MLn2lEkXFf7w-29" vertex="1">
          <mxGeometry x="470" y="100" width="20" height="20" as="geometry" />
        </mxCell>
        <mxCell id="b6gE57P9MLn2lEkXFf7w-39" value="7" style="ellipse;whiteSpace=wrap;html=1;aspect=fixed;rounded=0;sketch=0;fontFamily=Helvetica;fontSize=12;fontColor=#ffffff;startSize=20;strokeColor=#B20000;fillColor=#e51400;" parent="b6gE57P9MLn2lEkXFf7w-29" vertex="1">
          <mxGeometry x="600" y="100" width="20" height="20" as="geometry" />
        </mxCell>
        <mxCell id="b6gE57P9MLn2lEkXFf7w-40" value="8" style="ellipse;whiteSpace=wrap;html=1;aspect=fixed;rounded=0;sketch=0;fontFamily=Helvetica;fontSize=12;fontColor=#ffffff;startSize=20;strokeColor=#B20000;fillColor=#e51400;" parent="b6gE57P9MLn2lEkXFf7w-29" vertex="1">
          <mxGeometry x="760" y="103" width="17" height="17" as="geometry" />
        </mxCell>
        <mxCell id="b6gE57P9MLn2lEkXFf7w-41" value="制定SMT学习计划" style="shape=step;perimeter=stepPerimeter;fixedSize=1;points=[];fillColor=#E6E6E6;" parent="1" vertex="1">
          <mxGeometry x="267" y="80" width="140" height="57" as="geometry" />
        </mxCell>
        <mxCell id="b6gE57P9MLn2lEkXFf7w-42" value="系统鉴定" style="shape=step;perimeter=stepPerimeter;fixedSize=1;points=[];fillColor=#f0a30a;fontColor=#000000;strokeColor=#BD7000;" parent="1" vertex="1">
          <mxGeometry x="547" y="80" width="130" height="57" as="geometry" />
        </mxCell>
        <mxCell id="b6gE57P9MLn2lEkXFf7w-43" value="创建鉴定表" style="html=1;shadow=0;dashed=0;align=center;verticalAlign=middle;shape=mxgraph.arrows2.arrow;dy=0;dx=21;notch=0;fillColor=#E6E6E6;" parent="1" vertex="1">
          <mxGeometry x="37" y="80" width="107.5" height="57" as="geometry" />
        </mxCell>
        <mxCell id="b6gE57P9MLn2lEkXFf7w-44" value="创建系统课程" style="shape=step;perimeter=stepPerimeter;fixedSize=1;points=[];fillColor=#E6E6E6;" parent="1" vertex="1">
          <mxGeometry x="144.5" y="80" width="120" height="57" as="geometry" />
        </mxCell>
        <mxCell id="b6gE57P9MLn2lEkXFf7w-45" value="计划审核" style="shape=step;perimeter=stepPerimeter;fixedSize=1;points=[];fillColor=#E6E6E6;" parent="1" vertex="1">
          <mxGeometry x="407" y="80" width="140" height="57" as="geometry" />
        </mxCell>
        <mxCell id="b6gE57P9MLn2lEkXFf7w-46" value="业务鉴定" style="shape=step;perimeter=stepPerimeter;fixedSize=1;points=[];fillColor=#E6E6E6;" parent="1" vertex="1">
          <mxGeometry x="687" y="80" width="140" height="57" as="geometry" />
        </mxCell>
        <mxCell id="b6gE57P9MLn2lEkXFf7w-47" value="" style="rounded=0;whiteSpace=wrap;html=1;sketch=0;fontFamily=Helvetica;fontSize=12;fontColor=default;startSize=20;strokeColor=none;fillColor=#E6E6E6;" parent="1" vertex="1">
          <mxGeometry x="37" y="528" width="1095" height="249" as="geometry" />
        </mxCell>
        <mxCell id="b6gE57P9MLn2lEkXFf7w-48" value="&lt;h3&gt;流程步骤说明&lt;/h3&gt;&lt;div&gt;&lt;ol&gt;&lt;li class=&quot;li1&quot; style=&quot;margin: 0px ; font-stretch: normal ; font-size: 13px ; line-height: normal ; font-family: &amp;#34;pingfang sc&amp;#34;&quot;&gt;&lt;span class=&quot;s1&quot; style=&quot;font-stretch: normal ; line-height: normal ; font-family: &amp;#34;helvetica neue&amp;#34;&quot;&gt;&lt;/span&gt;制定学习计划：学员、教练 、课程、计划完成时间&amp;nbsp; &amp;nbsp;&lt;/li&gt;&lt;li class=&quot;li1&quot; style=&quot;margin: 0px ; font-stretch: normal ; font-size: 13px ; line-height: normal ; font-family: &amp;#34;pingfang sc&amp;#34;&quot;&gt;学习计划通知：消息通知栏、我的学习任务栏&lt;/li&gt;&lt;li class=&quot;li1&quot; style=&quot;margin: 0px ; font-stretch: normal ; font-size: 13px ; line-height: normal ; font-family: &amp;#34;pingfang sc&amp;#34;&quot;&gt;学习计划详情：打开消息通知/我的任务，进入学习计划详情页面&lt;/li&gt;&lt;li class=&quot;li1&quot; style=&quot;margin: 0px ; font-stretch: normal ; font-size: 13px ; line-height: normal ; font-family: &amp;#34;pingfang sc&amp;#34;&quot;&gt;&lt;span class=&quot;s1&quot; style=&quot;font-stretch: normal ; line-height: normal ; font-family: &amp;#34;helvetica neue&amp;#34;&quot;&gt;&lt;/span&gt;完成学习内容：学习内容进度100%&lt;/li&gt;&lt;li class=&quot;li1&quot; style=&quot;margin: 0px ; font-stretch: normal ; font-size: 13px ; line-height: normal ; font-family: &amp;#34;pingfang sc&amp;#34;&quot;&gt;提交计划审核：学员完成计划后，点击“提交审核”按钮，提交&lt;/li&gt;&lt;li class=&quot;li1&quot; style=&quot;margin: 0px ; font-stretch: normal ; font-size: 13px ; line-height: normal ; font-family: &amp;#34;pingfang sc&amp;#34;&quot;&gt;计划审核通知：消息通知栏、我的待办&lt;/li&gt;&lt;li class=&quot;li1&quot; style=&quot;margin: 0px ; font-stretch: normal ; font-size: 13px ; line-height: normal ; font-family: &amp;#34;pingfang sc&amp;#34;&quot;&gt;计划审核详情：计划完成详情&lt;/li&gt;&lt;li class=&quot;li1&quot; style=&quot;margin: 0px ; font-stretch: normal ; font-size: 13px ; line-height: normal ; font-family: &amp;#34;pingfang sc&amp;#34;&quot;&gt;是否审核通过：通过/不通过&lt;/li&gt;&lt;ol&gt;&lt;li class=&quot;li1&quot; style=&quot;margin: 0px ; font-stretch: normal ; font-size: 13px ; line-height: normal&quot;&gt;&lt;span class=&quot;s1&quot; style=&quot;font-family: &amp;#34;pingfang sc&amp;#34; ; font-stretch: normal ; line-height: normal&quot;&gt;审核通过：RGM线下联系学员进行系统/单元鉴定&lt;/span&gt;&lt;/li&gt;&lt;li class=&quot;li1&quot; style=&quot;margin: 0px ; font-stretch: normal ; font-size: 13px ; line-height: normal&quot;&gt;&lt;span class=&quot;s1&quot; style=&quot;font-family: &amp;#34;pingfang sc&amp;#34; ; font-stretch: normal ; line-height: normal&quot;&gt;审核不通过：驳回申请并填写驳回原因，学员收到审核不通过通知后，重新完善学习内容后，再次提交审核&lt;/span&gt;&lt;/li&gt;&lt;/ol&gt;&lt;/ol&gt;&lt;/div&gt;&lt;div&gt;&lt;br&gt;&lt;/div&gt;" style="text;html=1;strokeColor=none;fillColor=none;spacing=5;spacingTop=-20;whiteSpace=wrap;overflow=hidden;rounded=0;sketch=0;fontFamily=Helvetica;fontSize=12;fontColor=default;startSize=20;" parent="1" vertex="1">
          <mxGeometry x="37" y="530" width="1095" height="247" as="geometry" />
        </mxCell>
      </root>
    </mxGraphModel>
  </diagram>
</mxfile>
